<?xml version="1.0" standalone="no"?>
<!DOCTYPE svg PUBLIC "-//W3C//DTD SVG 20010904//EN"
 "http://www.w3.org/TR/2001/REC-SVG-20010904/DTD/svg10.dtd">
<svg version="1.0" xmlns="http://www.w3.org/2000/svg"
 width="2712.000000pt" height="2712.000000pt" viewBox="0 0 2712.000000 2712.000000"
 preserveAspectRatio="xMidYMid meet">
<metadata>
Created by potrace 1.11, written by Peter Selinger 2001-2013
</metadata>
<g transform="translate(0.000000,2712.000000) scale(0.100000,-0.100000)"
fill="#000000" stroke="none">
<path d="M10373 26325 c-436 -436 -793 -796 -793 -800 0 -4 530 -537 1178
-1185 648 -648 1184 -1186 1191 -1194 11 -13 -150 -179 -1178 -1207 -655 -655
-1191 -1194 -1191 -1197 0 -4 357 -364 794 -801 l794 -794 1196 1195 1196
1196 1196 -1196 1195 -1196 795 795 c437 437 794 797 794 801 0 3 -535 542
-1190 1196 -654 655 -1190 1192 -1190 1195 0 3 537 542 1194 1198 l1193 1194
-798 798 -797 797 -1196 -1196 -1196 -1196 -1196 1196 c-658 658 -1196 1196
-1197 1195 -1 0 -359 -357 -794 -794z"/>
<path d="M10369 16739 l-796 -797 1196 -1196 1196 -1196 -1196 -1196 -1195
-1195 794 -795 c437 -437 797 -794 801 -794 3 0 543 537 1198 1192 l1193 1193
1194 -1194 c1046 -1045 1197 -1193 1211 -1181 8 7 368 365 798 796 l783 783
-1195 1195 -1196 1196 1196 1196 1196 1196 -794 794 c-437 437 -798 794 -801
794 -4 0 -544 -537 -1200 -1192 l-1192 -1193 -1193 1192 c-655 656 -1194 1194
-1197 1196 -3 1 -363 -356 -801 -794z"/>
<path d="M10373 7175 c-436 -436 -793 -796 -793 -800 0 -4 528 -535 1173
-1180 644 -645 1180 -1182 1191 -1193 18 -21 14 -25 -1176 -1216 l-1195 -1194
798 -798 798 -798 1195 1196 1196 1196 1196 -1196 1195 -1196 795 795 c437
437 794 797 794 801 0 3 -536 543 -1191 1198 l-1192 1191 29 30 c16 17 552
554 1192 1194 639 639 1162 1166 1162 1170 0 4 -357 364 -794 801 l-794 794
-1196 -1196 -1196 -1196 -1169 1169 c-643 642 -1182 1180 -1197 1195 l-29 26
-792 -793z"/>
</g>
</svg>
